<?xml version="1.0" encoding="UTF-8"?>
<svg xmlns="http://www.w3.org/2000/svg" viewBox="0 0 204.55 273" width="20" height="20">
    <defs>
        <style>
            .cls-1 {
            fill: #e34526;
            stroke-width: 0px;
            }
        </style>
    </defs>
    <g id="Calque_2-2" data-name="Calque 2">
        <path class="cls-1"
            d="m191.14,116.58s-18.72-41.55-12.96-59.63c0,0-12.15-4.3-26.4,30.63-8.89,21.79-3.86,65.22-12.32,11.34,0,0-.41-54.89,38.4-98.92,0,0-24.1,2.59-38.97,14.67-3.03,2.79-7.08,4.94-9.82,8.78-11.13,15.63-15.97,21.85-23.48,41.15-.26.66-.33,1.38-.48,2.07-2.35,7.49-8.58,5.97-6.6-8.73,0,0,3.36-26.3,28.35-51.25,0,0-31.37,10.32-44.42,22.56C71.34,39.93-4.86,106.82.24,143.71c5.09,36.88.38,67.82,13.95,82.89,11.12,12.35,22.99,32.49,60.79,41.93,2.27-4.43,4.73-8.74,7.51-12.79,9.08-13.31,11-19.89,6.15-35-.88-2.73-1.7-8.25-4.37-9.46-9.82-4.44-38.92-7.17-49.69-7.18-2.4-.01-4.86-.03-7.18-.57-1.21-.26-5.16-2.83-6.26-3.72.87-.98,4.39-5.11,5.42-5.35,6.56-1.54,13.16-3.03,19.8-4.01,3.43-.51,21.04-1.22,25.45-1.12l-4.12-8.53-3.04-7.28-5.49-12.66-2.73-6.41-4.26-17.94c-3.99-19.38,7.52-47.55,7.52-47.55,0,0,15.76-30.45,11.24-.11-4.16,40.15,2.89,46.85,2.89,46.85,7.96-9.56,16.22-25.29,27.79-29.38,1.5-.52,3.39.21,5.09.35-.56,1.55-.74,3.46-1.73,4.61-3.52,3.92-6.77,10.83-10.12,14.89-3.31,4.01-11.93,20.58-14.41,25.2,0,0,3.67,14.93,6.86,20.43,3.19,5.51,4.23,6.89,8.19,13.07,1.91-2.3,7.27-7.52,8.15-8.98,6.26-10.21,14.78-18.21,23.85-25.53,6.44-5.18,6.68-3.97,13.47-8.67,1.94-1.35,14.37-4.62,16.01-2.42,1.87,2.51-7.66,13.42-9.1,14.78-4.74,4.52-5.36,5.99-9.97,10.65-3.37,3.4-6.48,7.12-9.29,11.03-2.84,3.94,4.02,2.66,8.56,3.81,7.62,1.91,7.62,1.69,15.16,3.91,6.98,2.04,13.87,5.12,20.64,7.83.84.32,3.56,2.97,4.21,3.82-.95.36-5.39,1.03-6.32.95-3.43-.22-6.82-.82-10.24-1.08-12.97-.96-25.96-1.86-38.94-2.73-2.67-.19-4.7.94-5.51,3.82-2.14,7.61-3.33,15.27-2.01,23.17.48,2.84,1.52,3.88,4.39,2.96,5.06-1.62,10.16-3.11,15.28-4.36,4.35-1.07,8.77-1.77,13.18-2.43.82-.12,1.75.62,2.62.98-.62.75-1.12,1.67-1.9,2.19-4.86,3.4-10.05,6.33-14.62,10.11-6.36,5.27-12.6,10.8-18.24,16.87-3.95,4.24-6.89,9.51-10.13,14.46-2.62,3.99-4.88,8.1-6.19,12.52,1.72.17,3.49.33,5.28.47,0,0,63.47-6.27,75.41-29.04,11.93-22.78,26.02-33.78,24.87-56.73-1.17-22.95,6.14-44.32-12.97-70.65Z" />
    </g>
</svg>
